<?xml version="1.0" encoding="UTF-8" standalone="no"?>
<!-- Created with Inkscape (http://www.inkscape.org/) -->

<svg
   version="1.1"
   id="svg2"
   width="666.66669"
   height="666.66669"
   viewBox="0 0 666.66669 666.66669"
   sodipodi:docname="BSI_Lens_charcoal.eps"
   xmlns:inkscape="http://www.inkscape.org/namespaces/inkscape"
   xmlns:sodipodi="http://sodipodi.sourceforge.net/DTD/sodipodi-0.dtd"
   xmlns="http://www.w3.org/2000/svg"
   xmlns:svg="http://www.w3.org/2000/svg">
  <defs
     id="defs6" />
  <sodipodi:namedview
     id="namedview4"
     pagecolor="#ffffff"
     bordercolor="#000000"
     borderopacity="0.25"
     inkscape:showpageshadow="2"
     inkscape:pageopacity="0.0"
     inkscape:pagecheckerboard="0"
     inkscape:deskcolor="#d1d1d1" />
  <g
     id="g8"
     inkscape:groupmode="layer"
     inkscape:label="ink_ext_XXXXXX"
     transform="matrix(1.3333333,0,0,-1.3333333,0,666.66667)">
    <g
       id="g10"
       transform="scale(0.1)">
      <path
         d="m 4200.5,3837.85 -2366.18,448.04 c -297.47,56.32 -594.05,-101.99 -713.66,-380.94 L 311.566,2018.05 C 205.754,1771.27 322.277,1485.42 570.145,1383.73 L 2539.21,575.859 c 288.47,-118.347 620.04,-13.359 788.5,249.672 L 4624.43,2850.25 c 247.76,386.86 26.5,902.32 -423.93,987.6"
         style="fill:#1c1f27;fill-opacity:1;fill-rule:nonzero;stroke:none"
         id="path12" />
      <path
         d="m 2246.43,2403.87 c 0,311.19 -103.81,500.24 -384.34,500.24 -96.05,0 -188.29,-30.58 -257.47,-74.47 v 528.84 H 1389.39 V 1926.57 h 126.86 l 34.56,76.35 c 84.55,-61.07 182.58,-99.22 311.28,-99.22 280.53,0 384.34,187.08 384.34,500.17 z m -217.14,0 c 0,-177.55 -28.84,-318.84 -217.13,-318.84 -101.83,0 -169.11,34.36 -207.54,55.4 v 526.95 c 38.43,20.97 105.71,55.33 207.54,55.33 188.29,0 217.13,-143.19 217.13,-318.84"
         style="fill:#fbfbfa;fill-opacity:1;fill-rule:nonzero;stroke:none"
         id="path14" />
      <path
         d="m 2632.02,1903.67 c -132.58,0 -251.69,24.82 -317.06,51.54 v 183.29 c 63.47,-22.93 165.3,-53.43 286.31,-53.43 153.74,0 228.7,34.35 228.7,118.36 0,70.61 -30.74,106.93 -159.51,118.36 -290.13,24.82 -361.21,114.58 -361.21,278.73 0,164.22 107.54,303.55 390.05,303.55 130.67,0 222.84,-15.29 297.81,-47.69 V 2671.2 c -82.59,30.5 -172.92,53.43 -294,53.43 -113.33,0 -184.42,-32.46 -184.42,-118.36 0,-66.82 34.56,-95.5 159.45,-106.93 288.22,-24.83 363.18,-110.72 363.18,-288.27 0,-164.22 -101.83,-307.4 -409.3,-307.4"
         style="fill:#fbfbfa;fill-opacity:1;fill-rule:nonzero;stroke:none"
         id="path16" />
      <path
         d="m 3236.53,3303.09 c 76.87,0 140.27,-62.96 140.27,-139.33 0,-76.36 -63.4,-139.39 -140.27,-139.39 -76.87,0 -140.26,63.03 -140.26,139.39 0,76.37 63.39,139.33 140.26,139.33"
         style="fill:#fbfbfa;fill-opacity:1;fill-rule:nonzero;stroke:none"
         id="path18" />
      <path
         d="m 3424.81,1917.06 c 0,0 -19.18,-3.85 -42.25,-3.85 -174.82,0 -253.65,84 -253.65,248.22 v 719.78 h 215.23 v -717.89 c 0,-53.43 19.24,-72.57 80.67,-72.57 v -173.69"
         style="fill:#fbfbfa;fill-opacity:1;fill-rule:nonzero;stroke:none"
         id="path20" />
    </g>
  </g>
</svg>
